<svg xmlns="http://www.w3.org/2000/svg" viewBox="0 0 100 100">
  <defs>
    <linearGradient id="leafGradient" x1="0%" y1="0%" x2="100%" y2="100%">
      <stop offset="0%" style="stop-color:#4ade80;stop-opacity:1" />
      <stop offset="50%" style="stop-color:#22c55e;stop-opacity:1" />
      <stop offset="100%" style="stop-color:#16a34a;stop-opacity:1" />
    </linearGradient>
  </defs>
  <!-- 나뭇잎 모양 -->
  <path d="M50 10 
           C30 15, 15 30, 20 50
           C15 60, 25 70, 35 75
           C40 80, 50 85, 60 80
           C75 75, 85 60, 80 50
           C85 30, 70 15, 50 10 Z" 
        fill="url(#leafGradient)" 
        stroke="#15803d" 
        stroke-width="1.5"/>
  <!-- 잎맥 -->
  <path d="M50 10 L50 50 M50 50 L35 75 M50 50 L60 80" 
        stroke="#15803d" 
        stroke-width="1" 
        stroke-linecap="round" 
        opacity="0.6"/>
  <path d="M30 30 Q50 40 50 50" 
        stroke="#15803d" 
        stroke-width="0.8" 
        fill="none" 
        opacity="0.5"/>
  <path d="M70 30 Q50 40 50 50" 
        stroke="#15803d" 
        stroke-width="0.8" 
        fill="none" 
        opacity="0.5"/>
</svg>
